<?xml version="1.0" encoding="UTF-8"?>
<svg version="1.1" xmlns="http://www.w3.org/2000/svg" width="512" height="512">
<path d="M0 0 C3.21738798 2.63512497 6.29285755 5.40118022 9.34765625 8.22265625 C10.02183594 8.82722656 10.69601562 9.43179688 11.390625 10.0546875 C30.18403172 27.72995103 41.79188443 54.44467991 42.625 80.07421875 C42.86570109 92.69021987 43.05111321 105.06016691 39.34765625 117.22265625 C39.15429688 117.88056152 38.9609375 118.5384668 38.76171875 119.21630859 C31.58728003 143.15878349 16.59928261 165.14402052 -4.59375 178.8203125 C-6.52885581 180.13853449 -8.06323795 181.51170209 -9.65234375 183.22265625 C-9.15605469 183.70992187 -8.65976562 184.1971875 -8.1484375 184.69921875 C4.92199114 198.34008355 9.76968553 215.69133928 9.55078125 234.26171875 C8.59823641 252.83634321 0.00024285 269.1458513 -13.33984375 281.84765625 C-24.40784522 291.42766356 -38.55826917 298.32407526 -53.45240402 298.35687733 C-54.39587559 298.36133517 -55.33934715 298.36579301 -56.31140876 298.37038594 C-57.3396955 298.37020158 -58.36798225 298.37001722 -59.4274292 298.36982727 C-60.52634939 298.37350396 -61.62526959 298.37718065 -62.7574904 298.38096875 C-66.44738113 298.39199958 -70.13724369 298.39584849 -73.82714844 298.3996582 C-76.47022163 298.4059235 -79.11329182 298.41255783 -81.75636292 298.41957092 C-89.69510294 298.43931301 -97.6338442 298.44940068 -105.57260263 298.45829871 C-109.31710224 298.46268709 -113.06160044 298.46805263 -116.80609894 298.47328758 C-129.26547324 298.49030095 -141.72484667 298.50479159 -154.1842308 298.51203632 C-157.41595206 298.51394603 -160.6476733 298.51586639 -163.87939453 298.51782227 C-165.08414926 298.51854788 -165.08414926 298.51854788 -166.31324247 298.51928815 C-179.30243569 298.52757521 -192.29153642 298.55288918 -205.28068933 298.58540294 C-218.63654811 298.61856002 -231.99236004 298.63649305 -245.34826016 298.63968056 C-252.83878644 298.64183816 -260.32917803 298.65047553 -267.819664 298.67614174 C-274.20395402 298.69796763 -280.58807664 298.70584147 -286.97239974 298.69617496 C-290.22321701 298.69166369 -293.47362162 298.69556046 -296.72440529 298.7129364 C-313.34757237 298.79676461 -330.01936182 298.67965523 -345.02734375 290.53515625 C-345.68105957 290.19266846 -346.33477539 289.85018066 -347.00830078 289.49731445 C-366.62414451 278.84616668 -379.16934205 261.37713961 -385.7421875 240.5 C-391.5387741 219.62731262 -387.90977873 197.6716938 -377.79296875 178.890625 C-372.7019848 169.89824726 -365.29595491 160.98506369 -356.65234375 155.22265625 C-356.20939147 153.23194623 -356.20939147 153.23194623 -356.28125 150.91796875 C-356.26682861 150.03447754 -356.25240723 149.15098633 -356.23754883 148.24072266 C-356.22630981 146.80865479 -356.22630981 146.80865479 -356.21484375 145.34765625 C-355.28067725 111.87655275 -342.29969938 82.35094271 -318.04296875 59.28515625 C-293.60910974 36.83847248 -263.24170467 29.34467834 -230.83056641 30.08642578 C-211.70953529 30.90602444 -191.32031112 37.59526024 -175.80859375 48.97265625 C-173.02694012 51.41614802 -173.02694012 51.41614802 -170.65234375 51.22265625 C-170.21535156 50.11470703 -170.21535156 50.11470703 -169.76953125 48.984375 C-160.96279836 27.1890958 -146.91858817 7.70720415 -126.65234375 -4.77734375 C-125.50958984 -5.53724609 -125.50958984 -5.53724609 -124.34375 -6.3125 C-87.29020515 -30.10221435 -34.51529644 -27.08902239 0 0 Z " fill="#66CBD0" transform="translate(387.65234375,158.77734375)"/>
<path d="M0 0 C3.21738798 2.63512497 6.29285755 5.40118022 9.34765625 8.22265625 C10.02183594 8.82722656 10.69601562 9.43179688 11.390625 10.0546875 C30.18403172 27.72995103 41.79188443 54.44467991 42.625 80.07421875 C42.86570109 92.69021987 43.05111321 105.06016691 39.34765625 117.22265625 C39.15429688 117.88056152 38.9609375 118.5384668 38.76171875 119.21630859 C31.49130353 143.47907545 15.65242527 167.31140347 -6.65234375 180.22265625 C-7.46058594 180.69316406 -8.26882813 181.16367187 -9.1015625 181.6484375 C-11.65234375 182.22265625 -11.65234375 182.22265625 -14.23828125 180.6953125 C-15.15867187 179.89996094 -16.0790625 179.10460937 -17.02734375 178.28515625 C-23.62989563 172.84832112 -30.82368236 169.54876785 -38.65234375 166.22265625 C-38.66168945 165.54388428 -38.67103516 164.8651123 -38.68066406 164.16577148 C-39.09976734 139.89270659 -42.74731099 118.69791932 -59.65234375 100.22265625 C-60.53792969 99.19978516 -60.53792969 99.19978516 -61.44140625 98.15625 C-75.64906082 82.70920429 -96.05904106 75.42337765 -116.5390625 73.94140625 C-125.62924511 73.71343929 -133.84958688 75.17575014 -142.65234375 77.22265625 C-144.31771705 77.5623924 -145.98388565 77.89840873 -147.65234375 78.22265625 C-148.0184375 77.7121875 -148.38453125 77.20171875 -148.76171875 76.67578125 C-152.46180051 71.70710003 -156.46415651 67.2179975 -160.83984375 62.84765625 C-161.35063477 62.3362207 -161.86142578 61.82478516 -162.38769531 61.29785156 C-165.00578092 58.71738704 -167.64147404 56.33529514 -170.65234375 54.22265625 C-169.53408481 47.86053184 -167.69395351 42.56475551 -164.58984375 36.91015625 C-164.18918701 36.1730542 -163.78853027 35.43595215 -163.37573242 34.67651367 C-154.6266243 18.93771275 -142.06283237 4.71592887 -126.65234375 -4.77734375 C-125.89050781 -5.28394531 -125.12867188 -5.79054687 -124.34375 -6.3125 C-87.29020515 -30.10221435 -34.51529644 -27.08902239 0 0 Z " fill="#FDCA4F" transform="translate(387.65234375,158.77734375)"/>
<path d="M0 0 C1.68839355 1.64465278 3.35106863 3.31578479 5 5 C6.21974203 6.211261 7.44122346 7.42077194 8.6640625 8.62890625 C9.98442039 9.94005846 11.304732 11.25125727 12.625 12.5625 C13.29273438 13.22185547 13.96046875 13.88121094 14.6484375 14.56054688 C15.29296875 15.20185547 15.9375 15.84316406 16.6015625 16.50390625 C17.18244629 17.07955322 17.76333008 17.6552002 18.36181641 18.24829102 C23 23.20789866 23 23.20789866 23 26 C23.85722656 25.72285156 24.71445313 25.44570312 25.59765625 25.16015625 C26.74105469 24.79792969 27.88445312 24.43570313 29.0625 24.0625 C30.18785156 23.70285156 31.31320313 23.34320313 32.47265625 22.97265625 C52.93587914 17.32997353 74.7869003 21.89483793 93 32 C97.31965693 34.61882875 101.19884257 37.67746561 105 41 C106.30517578 42.13888672 106.30517578 42.13888672 107.63671875 43.30078125 C120.96977138 55.77627154 130.9103036 73.91993615 132.23925781 92.31103516 C132.29278446 95.62920058 132.26387971 98.93237893 132.1875 102.25 C132.17396484 103.38824219 132.16042969 104.52648437 132.14648438 105.69921875 C132.11160054 108.46666987 132.06259317 111.23306105 132 114 C132.58297852 114.18248291 133.16595703 114.36496582 133.76660156 114.55297852 C150.16180007 119.8252724 163.80123818 130.54363938 172.34765625 145.55859375 C180.5522404 162.64662836 182.91150344 181.75315937 177 200 C169.7093833 218.1041573 157.8954097 232.49415712 140 241 C132.63484407 243.72262506 125.10450042 246.11681249 117.19993973 246.13422108 C116.25646816 246.13867892 115.3129966 246.14313676 114.34093499 246.14772969 C113.31264825 246.14754533 112.2843615 246.14736097 111.22491455 246.14717102 C110.12599436 246.15084771 109.02707416 246.1545244 107.89485335 246.1583125 C104.20496262 246.16934333 100.51510006 246.17319224 96.82519531 246.17700195 C94.18212212 246.18326725 91.53905193 246.18990158 88.89598083 246.19691467 C80.95724081 246.21665676 73.01849955 246.22674443 65.07974112 246.23564246 C61.33524151 246.24003084 57.59074331 246.24539638 53.84624481 246.25063133 C41.38687051 246.2676447 28.92749708 246.28213534 16.46811295 246.28938007 C13.23639169 246.29128978 10.00467045 246.29321014 6.77294922 246.29516602 C5.56819449 246.29589163 5.56819449 246.29589163 4.33910128 246.2966319 C-8.65009194 246.30491896 -21.63919267 246.33023293 -34.62834558 246.36274669 C-47.98420436 246.39590377 -61.34001629 246.4138368 -74.69591641 246.41702431 C-82.18644269 246.41918191 -89.67683428 246.42781928 -97.16732025 246.45348549 C-103.55161027 246.47531138 -109.93573289 246.48318522 -116.32005599 246.47351871 C-119.57087326 246.46900744 -122.82127787 246.47290421 -126.07206154 246.49028015 C-142.69522862 246.57410836 -159.36701807 246.45699898 -174.375 238.3125 C-175.02871582 237.97001221 -175.68243164 237.62752441 -176.35595703 237.2746582 C-195.97180076 226.62351043 -208.5169983 209.15448336 -215.08984375 188.27734375 C-220.88643035 167.40465637 -217.25743498 145.44903755 -207.140625 126.66796875 C-202.04964105 117.67559101 -194.64361116 108.76240744 -186 103 C-185.55704772 101.00928998 -185.55704772 101.00928998 -185.62890625 98.6953125 C-185.61448486 97.81182129 -185.60006348 96.92833008 -185.58520508 96.01806641 C-185.57396606 94.58599854 -185.57396606 94.58599854 -185.5625 93.125 C-184.6283335 59.6538965 -171.64735563 30.12828646 -147.390625 7.0625 C-108.52027898 -28.64656931 -42.03171667 -33.71203667 0 0 Z M-143 32 C-152.08161199 43.20709565 -158.34590283 56.10719493 -162 70 C-162.34135986 71.04849121 -162.68271973 72.09698242 -163.03442383 73.17724609 C-164.06263135 77.24795996 -164.26239348 81.00095877 -164.23828125 85.1640625 C-164.25368748 86.71355056 -164.2699901 88.26302992 -164.28710938 89.8125 C-164.30359934 92.22643421 -164.31245708 94.6397246 -164.30541992 97.05371094 C-164.30279821 99.40371937 -164.33090458 101.75181084 -164.36328125 104.1015625 C-164.35307449 104.81937897 -164.34286774 105.53719543 -164.33235168 106.27676392 C-164.40866132 110.19853737 -164.86099773 111.83304481 -167.40380859 114.88720703 C-169.67340846 116.73421825 -171.94257295 118.53429413 -174.3125 120.25 C-185.92945463 129.27044987 -194.47401668 142.32700865 -197 157 C-198.88928649 173.67474687 -195.25921611 189.59611112 -185 203 C-184.23429687 204.05380859 -184.23429687 204.05380859 -183.453125 205.12890625 C-174.14760901 216.89900196 -159.712622 224.06873707 -145 226 C-141.45234878 226.15036223 -137.90741334 226.152132 -134.35694885 226.15390015 C-132.74804752 226.16047353 -132.74804752 226.16047353 -131.10664314 226.1671797 C-127.5119302 226.18053579 -123.91724177 226.18673944 -120.32250977 226.19287109 C-117.74500926 226.20077464 -115.16750985 226.20904375 -112.5900116 226.21765137 C-104.8548949 226.24212476 -97.1197719 226.25679542 -89.38462844 226.26971143 C-87.19748235 226.27342718 -85.01033688 226.2774001 -82.8231914 226.2814641 C-69.22227312 226.30670532 -55.62135374 226.32874416 -42.02041721 226.34119225 C-38.87306782 226.34412162 -35.72571846 226.34708333 -32.57836914 226.35009766 C-31.79617451 226.35084371 -31.01397987 226.35158976 -30.20808237 226.35235842 C-17.55060309 226.3649991 -4.89326468 226.39820788 7.76414882 226.43989949 C20.77876493 226.4824139 33.7933091 226.50589824 46.80799443 226.51111281 C54.10733158 226.51451625 61.4064486 226.52614462 68.70571709 226.55921555 C75.57830921 226.59030353 82.45051311 226.59557982 89.32316399 226.58383179 C91.83731007 226.5836117 94.3514743 226.5918624 96.86555862 226.60948563 C116.79839353 226.74153756 131.81736412 225.23027816 147.0546875 211.09375 C157.22879989 200.43931471 159.61607061 186.83474884 159.30859375 172.67578125 C158.71168127 160.26445984 151.71487429 149.92843193 142.87890625 141.52734375 C136.66887408 136.47927186 129.08882235 133.30638425 121.3828125 131.328125 C114.50400641 129.53365385 114.50400641 129.53365385 111.875 126.75 C110.44732898 122.26303393 110.51640282 118.45079155 112 114 C112.90914501 101.91276034 113.48725785 89.06052287 108 78 C107.59910156 77.09894531 107.19820313 76.19789063 106.78515625 75.26953125 C99.1801952 59.64078521 86.18074302 49.7566853 70.046875 44 C55.13824766 39.10691205 40.87597675 40.04291826 26.3515625 46.10546875 C24.10296939 46.96083058 22.39098115 47.35555105 20 47.4375 C19.0409375 47.49744141 19.0409375 47.49744141 18.0625 47.55859375 C12.70588234 46.10784313 9.40601227 40.02912345 6.25 35.75 C-9.15122364 15.44409221 -31.08648647 2.510154 -56.3046875 -1.421875 C-89.28607077 -5.86353347 -120.91902807 7.35531971 -143 32 Z " fill="#052A75" transform="translate(217,211)"/>
<path d="M0 0 C0.05945801 1.1746582 0.05945801 1.1746582 0.12011719 2.37304688 C1.95785442 37.15806212 7.84638249 69.90399354 22 102 C22.31404785 102.72687012 22.6280957 103.45374023 22.95166016 104.20263672 C37.96066032 138.72100529 63.2146441 171.02828761 93 194 C93.81911865 194.63373535 93.81911865 194.63373535 94.65478516 195.28027344 C98.33218515 198.10618452 102.07708545 200.81491926 105.87097549 203.48172569 C107.23939012 204.45758519 108.59594626 205.45041205 109.93679428 206.46381569 C123.09823282 216.3680382 134.13439372 217.5625976 150.2890625 217.29296875 C152.57263068 217.2948953 154.85619937 217.30168196 157.13973999 217.31306458 C163.08834529 217.32990467 169.03462292 217.28167824 174.98284912 217.21887207 C181.07708984 217.16637865 187.1712078 217.17683092 193.265625 217.18164062 C205.17777775 217.18193832 217.08842354 217.11334719 229 217 C229 217.33 229 217.66 229 218 C195.58925578 218.0687405 162.17852922 218.1215665 128.76772993 218.15319599 C124.81886736 218.15694789 120.87000494 218.16083088 116.92114258 218.16479492 C116.13503031 218.16558185 115.34891805 218.16636878 114.5389842 218.16717956 C101.8280873 218.18021596 89.11723131 218.20386002 76.40635864 218.23145839 C63.35352518 218.25956183 50.30071307 218.27618668 37.2478506 218.28226548 C29.20042253 218.2863717 21.15311013 218.29931766 13.10571768 218.3237494 C6.92391706 218.3415556 0.7422037 218.34335319 -5.43961906 218.33932304 C-7.96749328 218.3401458 -10.49537204 218.34607872 -13.02322006 218.35761642 C-35.60329811 218.45558927 -53.97669322 216.5894294 -71 200 C-83.59412452 186.01523342 -88.11618948 169.60726984 -87.1953125 151.20507812 C-85.84005997 135.90427702 -76.82205135 123.23865236 -66 113 C-63.36406838 110.96088309 -60.71173352 109.08851242 -57.8984375 107.3046875 C-55.86455621 106.13231157 -55.86455621 106.13231157 -55 104 C-54.89151041 101.55104827 -54.83862356 99.12555617 -54.82421875 96.67578125 C-54.80096796 95.15558591 -54.77684872 93.63540366 -54.75195312 92.11523438 C-54.71726989 89.73518804 -54.68774766 87.35560653 -54.67407227 84.9753418 C-54.57759358 70.91171767 -52.65805595 58.23250283 -46.375 45.4375 C-46.03509033 44.7347998 -45.69518066 44.03209961 -45.3449707 43.30810547 C-37.91802703 28.47430452 -18.4973557 0 0 0 Z " fill="#27A1CB" transform="translate(107,219)"/>
<path d="M0 0 C3.72392796 2.09097559 6.78866591 4.43228682 9.9375 7.3125 C11.24847656 8.49392578 11.24847656 8.49392578 12.5859375 9.69921875 C14.57770463 11.59752108 16.30044688 13.52333329 18.0625 15.625 C20.88736865 18.4693949 20.88736865 18.4693949 24.95703125 17.6640625 C25.75520264 17.55175293 26.55337402 17.43944336 27.37573242 17.32373047 C55.90909278 13.80384622 86.44812205 21.43960162 109.40625 38.89453125 C113.76401197 42.4319314 117.914158 46.15367288 122 50 C122.60328125 50.53882813 123.2065625 51.07765625 123.828125 51.6328125 C136.49528975 63.41209187 145.9228236 80.62920194 151 97 C151.27457031 97.82113281 151.54914063 98.64226562 151.83203125 99.48828125 C153.17180919 103.83760963 154.04907311 107.90147037 154.2421875 112.44921875 C154.34331465 121.24624171 154.34331465 121.24624171 158.4296875 128.60546875 C161.22505513 130.34423191 163.98804977 131.68388994 167 133 C168.36155042 133.96122746 169.70666418 134.94878155 171 136 C166.7672021 146.00688634 155.61002972 153.1432736 146.54296875 158.43359375 C144 159 144 159 141.4140625 157.47265625 C140.49367188 156.67730469 139.57328125 155.88195312 138.625 155.0625 C132.02244812 149.62566487 124.82866139 146.3261116 117 143 C116.9906543 142.32122803 116.98130859 141.64245605 116.97167969 140.94311523 C116.55257641 116.67005034 112.90503276 95.47526307 96 77 C95.11441406 75.97712891 95.11441406 75.97712891 94.2109375 74.93359375 C80.00328293 59.48654804 59.59330269 52.2007214 39.11328125 50.71875 C30.02309864 50.49078304 21.80275687 51.95309389 13 54 C11.3346267 54.33973615 9.6684581 54.67575248 8 55 C7.63390625 54.48953125 7.2678125 53.9790625 6.890625 53.453125 C3.19054324 48.48444378 -0.81181276 43.99534125 -5.1875 39.625 C-5.95368652 38.85784668 -5.95368652 38.85784668 -6.73535156 38.07519531 C-9.35343717 35.49473079 -11.98913029 33.11263889 -15 31 C-13.87691571 24.42386786 -11.84639217 19.07166623 -8.625 13.25 C-8.23828125 12.52167969 -7.8515625 11.79335937 -7.453125 11.04296875 C-5.28610083 7.03615561 -2.98936264 3.46711466 0 0 Z " fill="#FC8E01" transform="translate(232,182)"/>
<path d="M0 0 C1.39365803 -0.01151247 2.78727221 -0.03195327 4.18066406 -0.06152344 C6.20171856 -0.10439211 8.22146611 -0.12039378 10.24291992 -0.13061523 C12.05240112 -0.15248901 12.05240112 -0.15248901 13.8984375 -0.17480469 C17.95601327 0.38813826 20.11181179 1.75525439 23.28588867 4.29516602 C25.01458646 7.75256159 24.77555763 11.51492169 24.28588867 15.29516602 C22.49195199 18.1654647 21.30325591 19.7864824 18.28588867 21.29516602 C13.77295551 21.53086562 9.25615411 21.52358897 4.73779297 21.53540039 C2.49237722 21.54508412 0.24788555 21.57609559 -1.99731445 21.60766602 C-3.43025174 21.61419854 -4.86319556 21.61944803 -6.29614258 21.62329102 C-8.24870972 21.63730957 -8.24870972 21.63730957 -10.24072266 21.65161133 C-13.92459622 21.27356568 -15.77874077 20.49677851 -18.71411133 18.29516602 C-21.28600812 14.86597029 -21.21625333 11.45577115 -20.71411133 7.29516602 C-15.84448226 -1.09557945 -8.70560368 0.05008507 0 0 Z " fill="#FD6050" transform="translate(487.714111328125,235.704833984375)"/>
<path d="M0 0 C2.8100346 1.79363911 4.50940468 3.01880935 6 6 C6.1349498 8.42220927 6.21254926 10.8144045 6.23828125 13.23828125 C6.246353 13.95606247 6.25442474 14.67384369 6.26274109 15.41337585 C6.27657786 16.93400663 6.28730185 18.45466841 6.29516602 19.9753418 C6.31235842 22.29341042 6.35624181 24.61004469 6.40039062 26.92773438 C6.41051977 28.40623953 6.41903519 29.88475679 6.42578125 31.36328125 C6.44328934 32.05303543 6.46079742 32.74278961 6.47883606 33.45344543 C6.45739701 38.24498148 5.38454362 40.63672053 2 44 C-1.74349288 45.87174644 -6.3434476 45.44771687 -10.3125 44.375 C-13.68235375 41.62919324 -14.88683095 37.95154531 -15.38818359 33.73608398 C-15.39156738 32.58438721 -15.39495117 31.43269043 -15.3984375 30.24609375 C-15.40230469 28.97958984 -15.40617187 27.71308594 -15.41015625 26.40820312 C-15.39855469 25.09787109 -15.38695312 23.78753906 -15.375 22.4375 C-15.38660156 21.12330078 -15.39820313 19.80910156 -15.41015625 18.45507812 C-15.40628906 17.18986328 -15.40242188 15.92464844 -15.3984375 14.62109375 C-15.39505371 13.4705249 -15.39166992 12.31995605 -15.38818359 11.13452148 C-14.86025347 6.87156876 -13.2011952 4.29017262 -10.3125 1.1875 C-6.91635199 -0.5564679 -3.6895784 -0.68081506 0 0 Z " fill="#FD5F4F" transform="translate(325,55)"/>
<path d="M0 0 C6.03619232 3.14385017 12.39125208 8.55266586 15 15 C15.66298343 21.96132597 15.66298343 21.96132597 13.125 25.9375 C9.97397969 28.99584324 7.63589331 29.47026657 3.21875 29.40625 C-3.66378519 28.1460675 -9.01197112 21.35417026 -13 16 C-14.57455739 12.85088521 -14.34799118 10.47991184 -14 7 C-10.39251134 0.94264964 -6.92036822 -0.57669735 0 0 Z " fill="#FD5E4E" transform="translate(435,347)"/>
<path d="M0 0 C2.52587503 1.89440627 3.99194359 3.5296717 4.69140625 6.66796875 C4.95539489 11.47937453 4.36442617 14.17096052 1.1875 17.875 C-0.10433467 19.16683467 -1.41694153 20.43824874 -2.75 21.6875 C-3.31332031 22.29207031 -3.87664062 22.89664063 -4.45703125 23.51953125 C-7.57078815 26.63328815 -9.91846654 28.10200043 -14.375 28.375 C-17.98269016 28.13489775 -18.75432719 27.68407431 -21.75 25.3125 C-24.59486549 21.57861404 -25.33078258 19.19982615 -24.79296875 14.4140625 C-22.45630214 8.30547338 -16.67173557 3.79561533 -11.75 -0.3125 C-7.39900148 -1.76283284 -4.19600878 -2.00264055 0 0 Z " fill="#FD5F4F" transform="translate(445.75,118.3125)"/>
<path d="M0 0 C6.55128466 3.41806156 12.5190928 8.87364035 15.6875 15.5625 C16.08501233 19.93513565 15.18151543 22.21870659 13 26 C10.52862581 28.8375037 9.01696757 28.99717207 5.25 29.625 C-0.30547929 29.40815044 -3.35765668 25.84511295 -7 22 C-7.59425781 21.401875 -8.18851563 20.80375 -8.80078125 20.1875 C-12.08073676 16.68053086 -14.1066075 14.01055271 -14 9 C-12.74365054 5.44034319 -11.62302702 3.50515704 -8.6875 1.125 C-5.43064391 -0.23833511 -3.50329831 -0.50047119 0 0 Z " fill="#FD5F50" transform="translate(205,117)"/>
</svg>
